<?xml version="1.0" encoding="UTF-8"?>
<svg width="600" height="400" viewBox="0 0 600 400" xmlns="http://www.w3.org/2000/svg">
  <!-- Background -->
  <rect width="600" height="400" fill="#FFF0F5"/>
  
  <!-- Title -->
  <text x="300" y="40" text-anchor="middle" font-family="Comic Sans MS, cursive" font-size="24" fill="#2D3748">
    Racing Car Collection! 🏎️
  </text>
  
  <!-- Parking lot/garage floor -->
  <rect x="40" y="80" width="520" height="280" fill="#D3D3D3" stroke="#808080" stroke-width="3"/>
  
  <!-- Parking lines -->
  <line x1="140" y1="80" x2="140" y2="360" stroke="#FFFF00" stroke-width="4" stroke-dasharray="10,5"/>
  <line x1="240" y1="80" x2="240" y2="360" stroke="#FFFF00" stroke-width="4" stroke-dasharray="10,5"/>
  <line x1="340" y1="80" x2="340" y2="360" stroke="#FFFF00" stroke-width="4" stroke-dasharray="10,5"/>
  <line x1="440" y1="80" x2="440" y2="360" stroke="#FFFF00" stroke-width="4" stroke-dasharray="10,5"/>
  
  <!-- Red cars (3) -->
  <g id="red-cars">
    <!-- Car 1 -->
    <g transform="translate(70, 120)">
      <rect x="10" y="20" width="50" height="30" fill="#FF0000" stroke="#8B0000" stroke-width="2" rx="10"/>
      <rect x="5" y="15" width="60" height="20" fill="#FF0000" stroke="#8B0000" stroke-width="2" rx="5"/>
      <rect x="20" y="10" width="30" height="15" fill="#87CEEB" stroke="#4682B4" stroke-width="1"/>
      <circle cx="15" cy="50" r="8" fill="#000000"/>
      <circle cx="55" cy="50" r="8" fill="#000000"/>
      <circle cx="15" cy="50" r="4" fill="#C0C0C0"/>
      <circle cx="55" cy="50" r="4" fill="#C0C0C0"/>
      <text x="35" y="30" text-anchor="middle" font-family="Arial" font-size="10" fill="#FFFFFF">1</text>
    </g>
    
    <!-- Car 2 -->
    <g transform="translate(270, 200)">
      <rect x="10" y="20" width="50" height="30" fill="#FF0000" stroke="#8B0000" stroke-width="2" rx="10"/>
      <rect x="5" y="15" width="60" height="20" fill="#FF0000" stroke="#8B0000" stroke-width="2" rx="5"/>
      <rect x="20" y="10" width="30" height="15" fill="#87CEEB" stroke="#4682B4" stroke-width="1"/>
      <circle cx="15" cy="50" r="8" fill="#000000"/>
      <circle cx="55" cy="50" r="8" fill="#000000"/>
      <circle cx="15" cy="50" r="4" fill="#C0C0C0"/>
      <circle cx="55" cy="50" r="4" fill="#C0C0C0"/>
      <text x="35" y="30" text-anchor="middle" font-family="Arial" font-size="10" fill="#FFFFFF">7</text>
    </g>
    
    <!-- Car 3 -->
    <g transform="translate(470, 150)">
      <rect x="10" y="20" width="50" height="30" fill="#FF0000" stroke="#8B0000" stroke-width="2" rx="10"/>
      <rect x="5" y="15" width="60" height="20" fill="#FF0000" stroke="#8B0000" stroke-width="2" rx="5"/>
      <rect x="20" y="10" width="30" height="15" fill="#87CEEB" stroke="#4682B4" stroke-width="1"/>
      <circle cx="15" cy="50" r="8" fill="#000000"/>
      <circle cx="55" cy="50" r="8" fill="#000000"/>
      <circle cx="15" cy="50" r="4" fill="#C0C0C0"/>
      <circle cx="55" cy="50" r="4" fill="#C0C0C0"/>
      <text x="35" y="30" text-anchor="middle" font-family="Arial" font-size="10" fill="#FFFFFF">3</text>
    </g>
  </g>
  
  <!-- Blue cars (7) -->
  <g id="blue-cars">
    <!-- Car 1 -->
    <g transform="translate(170, 120)">
      <rect x="10" y="20" width="50" height="30" fill="#0000FF" stroke="#000080" stroke-width="2" rx="10"/>
      <rect x="5" y="15" width="60" height="20" fill="#0000FF" stroke="#000080" stroke-width="2" rx="5"/>
      <rect x="20" y="10" width="30" height="15" fill="#87CEEB" stroke="#4682B4" stroke-width="1"/>
      <circle cx="15" cy="50" r="8" fill="#000000"/>
      <circle cx="55" cy="50" r="8" fill="#000000"/>
      <circle cx="15" cy="50" r="4" fill="#C0C0C0"/>
      <circle cx="55" cy="50" r="4" fill="#C0C0C0"/>
    </g>
    
    <!-- Car 2 -->
    <g transform="translate(70, 200)">
      <rect x="10" y="20" width="50" height="30" fill="#0000FF" stroke="#000080" stroke-width="2" rx="10"/>
      <rect x="5" y="15" width="60" height="20" fill="#0000FF" stroke="#000080" stroke-width="2" rx="5"/>
      <rect x="20" y="10" width="30" height="15" fill="#87CEEB" stroke="#4682B4" stroke-width="1"/>
      <circle cx="15" cy="50" r="8" fill="#000000"/>
      <circle cx="55" cy="50" r="8" fill="#000000"/>
      <circle cx="15" cy="50" r="4" fill="#C0C0C0"/>
      <circle cx="55" cy="50" r="4" fill="#C0C0C0"/>
    </g>
    
    <!-- Car 3 -->
    <g transform="translate(170, 280)">
      <rect x="10" y="20" width="50" height="30" fill="#0000FF" stroke="#000080" stroke-width="2" rx="10"/>
      <rect x="5" y="15" width="60" height="20" fill="#0000FF" stroke="#000080" stroke-width="2" rx="5"/>
      <rect x="20" y="10" width="30" height="15" fill="#87CEEB" stroke="#4682B4" stroke-width="1"/>
      <circle cx="15" cy="50" r="8" fill="#000000"/>
      <circle cx="55" cy="50" r="8" fill="#000000"/>
      <circle cx="15" cy="50" r="4" fill="#C0C0C0"/>
      <circle cx="55" cy="50" r="4" fill="#C0C0C0"/>
    </g>
    
    <!-- Car 4 -->
    <g transform="translate(270, 120)">
      <rect x="10" y="20" width="50" height="30" fill="#0000FF" stroke="#000080" stroke-width="2" rx="10"/>
      <rect x="5" y="15" width="60" height="20" fill="#0000FF" stroke="#000080" stroke-width="2" rx="5"/>
      <rect x="20" y="10" width="30" height="15" fill="#87CEEB" stroke="#4682B4" stroke-width="1"/>
      <circle cx="15" cy="50" r="8" fill="#000000"/>
      <circle cx="55" cy="50" r="8" fill="#000000"/>
      <circle cx="15" cy="50" r="4" fill="#C0C0C0"/>
      <circle cx="55" cy="50" r="4" fill="#C0C0C0"/>
    </g>
    
    <!-- Car 5 -->
    <g transform="translate(370, 200)">
      <rect x="10" y="20" width="50" height="30" fill="#0000FF" stroke="#000080" stroke-width="2" rx="10"/>
      <rect x="5" y="15" width="60" height="20" fill="#0000FF" stroke="#000080" stroke-width="2" rx="5"/>
      <rect x="20" y="10" width="30" height="15" fill="#87CEEB" stroke="#4682B4" stroke-width="1"/>
      <circle cx="15" cy="50" r="8" fill="#000000"/>
      <circle cx="55" cy="50" r="8" fill="#000000"/>
      <circle cx="15" cy="50" r="4" fill="#C0C0C0"/>
      <circle cx="55" cy="50" r="4" fill="#C0C0C0"/>
    </g>
    
    <!-- Car 6 -->
    <g transform="translate(370, 280)">
      <rect x="10" y="20" width="50" height="30" fill="#0000FF" stroke="#000080" stroke-width="2" rx="10"/>
      <rect x="5" y="15" width="60" height="20" fill="#0000FF" stroke="#000080" stroke-width="2" rx="5"/>
      <rect x="20" y="10" width="30" height="15" fill="#87CEEB" stroke="#4682B4" stroke-width="1"/>
      <circle cx="15" cy="50" r="8" fill="#000000"/>
      <circle cx="55" cy="50" r="8" fill="#000000"/>
      <circle cx="15" cy="50" r="4" fill="#C0C0C0"/>
      <circle cx="55" cy="50" r="4" fill="#C0C0C0"/>
    </g>
    
    <!-- Car 7 -->
    <g transform="translate(470, 250)">
      <rect x="10" y="20" width="50" height="30" fill="#0000FF" stroke="#000080" stroke-width="2" rx="10"/>
      <rect x="5" y="15" width="60" height="20" fill="#0000FF" stroke="#000080" stroke-width="2" rx="5"/>
      <rect x="20" y="10" width="30" height="15" fill="#87CEEB" stroke="#4682B4" stroke-width="1"/>
      <circle cx="15" cy="50" r="8" fill="#000000"/>
      <circle cx="55" cy="50" r="8" fill="#000000"/>
      <circle cx="15" cy="50" r="4" fill="#C0C0C0"/>
      <circle cx="55" cy="50" r="4" fill="#C0C0C0"/>
    </g>
  </g>
  
  <!-- Trophy -->
  <g transform="translate(280, 340)">
    <path d="M 10 10 Q 5 10 5 15 Q 5 25 15 25 L 25 25 Q 35 25 35 15 Q 35 10 30 10 L 10 10" 
          fill="#FFD700" stroke="#FFA500" stroke-width="2"/>
    <rect x="15" y="25" width="10" height="10" fill="#FFD700" stroke="#FFA500" stroke-width="2"/>
    <ellipse cx="20" cy="35" rx="15" ry="3" fill="#8B4513"/>
    <text x="20" y="20" text-anchor="middle" font-family="Arial" font-size="8" fill="#8B4513">1st</text>
  </g>
  
  <!-- Checkered flag -->
  <g transform="translate(480, 80)">
    <rect x="0" y="0" width="40" height="30" fill="#000000"/>
    <rect x="0" y="0" width="10" height="10" fill="#FFFFFF"/>
    <rect x="20" y="0" width="10" height="10" fill="#FFFFFF"/>
    <rect x="10" y="10" width="10" height="10" fill="#FFFFFF"/>
    <rect x="30" y="10" width="10" height="10" fill="#FFFFFF"/>
    <rect x="0" y="20" width="10" height="10" fill="#FFFFFF"/>
    <rect x="20" y="20" width="10" height="10" fill="#FFFFFF"/>
    <line x1="40" y1="15" x2="40" y2="50" stroke="#8B4513" stroke-width="3"/>
  </g>
</svg>